<?xml version="1.0" encoding="UTF-8" standalone="no"?>
<svg
   xmlns:dc="http://purl.org/dc/elements/1.1/"
   xmlns:cc="http://creativecommons.org/ns#"
   xmlns:rdf="http://www.w3.org/1999/02/22-rdf-syntax-ns#"
   xmlns:svg="http://www.w3.org/2000/svg"
   xmlns="http://www.w3.org/2000/svg"
   viewBox="0 0 554.66669 140"
   height="140"
   width="554.66669"
   xml:space="preserve"
   id="svg2"
   version="1.1"><metadata
     id="metadata8"><rdf:RDF><cc:Work
         rdf:about=""><dc:format>image/svg+xml</dc:format><dc:type
           rdf:resource="http://purl.org/dc/dcmitype/StillImage" /></cc:Work></rdf:RDF></metadata><defs
     id="defs6"><clipPath
       id="clipPath20"
       clipPathUnits="userSpaceOnUse"><path
         id="path18"
         d="M 0,0.00390625 H 1134.27 V 1050.0039 H 0 Z" /></clipPath><clipPath
       id="clipPath30"
       clipPathUnits="userSpaceOnUse"><path
         id="path28"
         d="M 1361.13,335.066 H 4159.99 V 714.937 H 1361.13 Z" /></clipPath></defs><g
     transform="matrix(1.3333333,0,0,-1.3333333,0,140)"
     id="g10"><g
       transform="scale(0.1)"
       id="g12"><g
         id="g14"><g
           clip-path="url(#clipPath20)"
           id="g16"><path
             id="path22"
             style="fill:#000000;fill-opacity:1;fill-rule:nonzero;stroke:none"
             d="m 1060.17,1043.59 c -8.55,-3.42 -70.631,-28.57 -138.006,-55.692 C 854.789,960.699 722.457,907.289 628.16,869.227 l -171.5,-69.211 -11.875,3.418 c -146.773,43.152 -182.769,53.562 -185.035,53.562 -1.516,0 -3.707,-0.535 -4.992,-1.141 -1.211,-0.683 -17.016,-12.308 -35.086,-25.832 -25.031,-18.765 -33.199,-25.3 -34.027,-27.121 -1.059,-2.433 -12.481,-117.761 -12.481,-126.269 0,-4.559 1.137,-6.688 6.356,-11.856 2.343,-2.277 4.234,-4.558 4.234,-5.089 0,-0.454 -40.609,-42.391 -90.2149,-93.067 C 44.0117,515.945 2.64844,473.477 1.66406,472.258 0.453125,470.664 0,469.07 0,466.184 c 0,-7.297 4.38672,-11.473 11.6445,-10.942 3.7813,0.227 5.3711,1.289 113.8045,80.379 81.442,59.414 115.168,84.41 130.067,96.567 11.039,9.039 20.187,16.027 20.339,15.574 0.075,-0.457 -6.125,-31.379 -13.839,-68.758 -7.711,-37.305 -13.989,-69.289 -13.989,-71.035 0.075,-1.672 0.453,-3.875 0.985,-4.711 0.527,-0.914 48.926,-52.117 107.527,-113.809 C 458.172,282.477 463.313,276.93 466.715,270.625 473.977,257.25 524.488,151.117 571.07,51.6641 595.492,-0.53125 595.117,0.00390625 601.922,0.00390625 c 4.008,0 7.105,1.13672375 9.223,3.49218375 0.683,0.83594 20.722,55.61331 44.464,121.86291 39.399,109.633 43.254,120.723 42.875,124.067 -0.226,2.66 -0.906,4.254 -2.496,5.926 -1.207,1.293 -24.273,20.285 -51.191,42.242 -26.996,22.035 -49.227,40.418 -49.379,40.875 -0.453,1.14 14.52,226.707 15.125,227.316 0.227,0.227 7.863,-1.062 17.012,-2.812 11.496,-2.203 17.468,-3.039 19.359,-2.735 2.117,0.457 15.199,10.559 57.695,44.75 215.817,173.371 405.461,324.637 422.331,336.641 5.9,4.18 7.33,6.535 7.33,11.625 0,6.23 -4.46,10.863 -10.43,10.863 -1.21,0 -9.83,-2.355 -19.13,-5.242 -9.3,-2.961 -42.12,-12.988 -72.9,-22.488 -30.77,-9.418 -56.865,-17.473 -57.923,-17.778 -2.192,-0.757 4.539,6.004 73.953,74 25.86,25.301 41.29,41.031 41.82,42.471 1.74,5.09 0,10.94 -4.09,13.45 -4.46,2.73 -8.39,1.97 -25.4,-4.94 z m -34.03,-41.03 c -2.72,-2.58 -26.542,-25.982 -52.933,-51.814 L 925.188,903.645 826.508,873.48 C 772.215,856.918 681.926,829.34 625.816,812.168 569.707,795.074 523.277,781.02 522.598,781.02 c -1.438,0 -31.157,8.585 -30.778,8.89 0.227,0.305 538.33,217.44 538.86,217.52 0.22,0 -1.82,-2.21 -4.54,-4.87 z m 40.07,-79.771 c -0.6,-0.531 -17.46,-13.902 -37.42,-29.781 C 974.492,850.082 668.691,605.367 650.316,590.25 c -2.043,-1.75 -2.796,-1.977 -3.476,-1.219 -1.211,1.219 -107,173.149 -106.774,173.449 0.149,0.079 91.422,28.036 202.883,62.149 111.461,34.113 229.879,70.351 263.151,80.535 33.27,10.254 60.65,18.613 60.87,18.613 0.16,0.075 -0.15,-0.382 -0.76,-0.988 z M 282.813,765.445 c 14.214,-32.593 25.859,-59.562 25.937,-59.945 0.074,-0.301 -17.168,-14.812 -38.34,-32.137 l -38.414,-31.527 -2.871,2.887 c -1.59,1.672 -9.68,10.254 -18.074,19.222 -14.141,15.043 -15.199,16.41 -15.125,18.993 0,1.519 2.269,26.589 5.066,55.765 l 5.067,53.106 24.578,18.386 24.574,18.461 0.906,-1.976 c 0.457,-1.063 12.481,-28.641 26.696,-61.235 z m 185.492,7.825 c 24.879,-7.215 31.379,-9.418 30.625,-10.102 -0.532,-0.535 -30.551,-26.668 -66.774,-58.121 -36.144,-31.453 -66.617,-57.969 -67.676,-58.957 l -1.964,-1.824 -14.598,30.617 c -10.434,21.883 -62.309,138.805 -67.902,152.937 -0.153,0.457 35.011,-9.574 78.187,-22.261 43.18,-12.61 92.707,-27.2 110.102,-32.289 z M 570.766,669.414 c 27.601,-44.824 50.058,-81.672 49.832,-81.824 -0.227,-0.231 -6.653,0.758 -14.289,2.277 -7.563,1.446 -60.118,11.551 -116.68,22.488 -56.563,10.868 -103.445,20.059 -104.277,20.364 -1.137,0.453 11.191,11.547 66.164,59.562 37.203,32.442 67.906,58.883 68.359,58.805 0.379,-0.152 23.289,-36.848 50.891,-81.672 z M 425.125,461.625 C 481.309,344.168 528.344,245.629 529.781,242.59 l 2.496,-5.473 -8.168,8.512 c -4.461,4.711 -63.293,66.551 -130.668,137.512 -86.582,91.093 -122.5,129.386 -122.273,130.297 0.227,0.683 7.637,36.621 16.484,79.773 14.746,71.418 16.332,78.559 17.922,79.848 0.981,0.761 4.387,3.496 7.485,6.078 l 5.671,4.636 2.118,-4.332 c 1.211,-2.355 48.168,-100.363 104.277,-217.816 z M 207.043,635.379 c 6.805,-7.297 6.883,-7.297 5.219,-8.586 -0.91,-0.684 -19.891,-14.59 -42.121,-30.77 -22.231,-16.261 -44.161,-32.214 -48.774,-35.558 l -8.316,-6.078 32.137,32.746 c 17.695,18.082 37.05,37.988 43.027,44.219 5.973,6.304 11.113,11.394 11.418,11.394 0.379,0 3.703,-3.266 7.41,-7.367 z M 483.805,590.781 C 540.898,579.762 587.781,570.57 587.93,570.418 588.309,570.039 565.172,222.684 564.715,222.227 564.488,222 380.059,607.113 379,610.152 c -0.152,0.383 0,0.684 0.375,0.684 0.305,0 47.34,-9.039 104.43,-20.055 z M 631.262,279.742 c 20.039,-16.336 36.445,-30.012 36.371,-30.316 -0.153,-0.836 -80.988,-50.446 -81.442,-49.992 -0.832,0.836 6.957,111.226 7.789,110.621 0.379,-0.379 17.165,-13.981 37.282,-30.313 z m -90.969,-83.726 c 14.062,-14.813 26.164,-26.969 27.828,-27.883 3.477,-1.973 5.668,-2.203 9.074,-0.684 1.36,0.531 21.778,12.84 45.371,27.426 23.668,14.512 43.102,26.215 43.25,26.063 0.379,-0.383 -64.046,-179.9107 -64.574,-179.9107 -0.304,0 -9.984,20.2852 -21.554,45.0547 -19.661,41.711 -45.293,96.031 -58.981,124.672 -3.176,6.687 -5.672,12.004 -5.519,11.777 0.152,-0.152 11.417,-12.078 25.105,-26.515" /></g></g><g
         id="g24"><g
           clip-path="url(#clipPath30)"
           id="g26"><path
             id="path32"
             style="fill:#141414;fill-opacity:1;fill-rule:nonzero;stroke:none"
             d="m 1528.34,424.48 h -134.25 l -22.18,-89.414 h -10.78 l 91.17,379.872 h 16.7 l 93.35,-379.872 h -11.84 z m -67.95,276.383 -64.2,-265.543 h 130.05 z M 1967.93,519.316 H 1831.51 V 335.066 H 1819.6 V 714.41 h 11.91 V 530.156 h 136.42 V 714.41 h 11.91 V 335.066 h -11.91 z m 481.18,177.18 -92.82,-360.379 h -13.49 l -93.27,360.379 v -361.43 h -10.78 V 714.41 h 18.35 l 92.74,-359.851 92.75,359.851 h 18.35 V 335.066 h -11.83 z M 2885.48,424.48 h -134.32 l -22.1,-89.414 h -10.79 l 91.09,379.872 h 16.78 l 93.27,-379.872 h -11.83 z m -68.02,276.383 -64.13,-265.543 h 129.97 z m 359.28,13.547 h 78.74 c 14.38,0 26.79,-2.433 37.23,-7.301 10.39,-4.867 18.93,-11.464 25.62,-19.796 6.64,-8.329 11.49,-18.262 14.53,-29.805 3.05,-11.539 4.57,-24.184 4.57,-37.934 v 0 -190.199 c 0,-13.398 -1.52,-25.867 -4.57,-37.41 -3.04,-11.539 -7.89,-21.473 -14.53,-29.805 -6.69,-8.328 -15.16,-14.926 -25.4,-19.793 -10.23,-4.867 -22.54,-7.301 -36.93,-7.301 v 0 h -79.26 z m 11.84,-367.98 h 66.9 c 12.58,0 23.37,2.082 32.36,6.246 8.99,4.168 16.26,9.937 21.8,17.312 5.59,7.426 9.64,16.106 12.14,26.043 2.54,9.934 3.82,20.875 3.82,32.817 v 0 191.254 c 0,11.941 -1.28,22.957 -3.82,33.043 -2.5,10.132 -6.62,18.914 -12.36,26.343 -5.75,7.375 -13.04,13.145 -21.88,17.309 -8.79,4.164 -19.48,6.25 -32.06,6.25 v 0 h -66.9 z m 406.71,367.98 h 74.99 c 28.01,0 47.97,-7.676 59.85,-23.031 11.84,-15.356 17.76,-36.027 17.76,-62.02 v 0 -34.171 c 0,-23.485 -4.75,-41.649 -14.24,-54.493 -9.54,-12.797 -24.74,-21.175 -45.62,-25.14 v 0 c 21.23,-3.262 36.51,-11.492 45.85,-24.688 9.34,-13.195 14.01,-30.258 14.01,-51.179 v 0 -59.614 c 0,-7.226 0.65,-15.004 1.95,-23.332 1.25,-8.332 4.02,-15.554 8.31,-21.676 v 0 h -12.96 c -3.94,6.122 -6.44,13.071 -7.49,20.848 -1.1,7.777 -1.65,15.832 -1.65,24.16 v 0 59.614 c 0,14.046 -1.97,25.589 -5.92,34.621 -3.94,9.031 -9.61,16.183 -17,21.449 -7.4,5.219 -16.11,8.91 -26.15,11.066 -10.09,2.207 -21.25,3.313 -33.48,3.313 v 0 h -46.37 V 335.066 h -11.84 z m 11.84,-192.91 h 46.37 c 12.98,0 24.59,0.98 34.83,2.938 10.24,2.007 18.85,5.718 25.85,11.136 7.04,5.422 12.43,12.821 16.18,22.207 3.79,9.383 5.69,21.301 5.69,35.75 v 0 34.699 c 0,23.133 -4.94,41.372 -14.83,54.719 -9.89,13.399 -27.07,20.098 -51.54,20.098 v 0 h -62.55 z m 420.71,11.367 h 111.1 v -10.84 h -111.1 V 346.43 h 132.15 V 335.066 H 4016 V 714.41 h 143.99 v -11.363 h -132.15 v -170.18" /></g></g></g></g></svg>